<svg xmlns="http://www.w3.org/2000/svg" viewBox="0 0 236 68">
    <path
        d="M29.637 0h-2.195v56.24h2.195V0ZM34.028 0h-2.195v56.24h2.195V0ZM2.195 0H0v56.24h2.195V0ZM6.586 0H4.391v56.24h2.195V0ZM17.563 0H8.78v51.128h8.782V0ZM24.149 0h-3.293v51h3.293V0ZM40.614 0h-2.195v51.128h2.195V0ZM49.395 0h-4.39v51.128h4.39V0ZM64.763 0h-2.196v51.128h2.196V0ZM75.74 0h-6.587v51.128h6.587V0ZM80.13 0h-2.195v51.128h2.195V0ZM86.716 0h-4.39v51.128h4.39V0ZM95.498 0h-2.196v51.128h2.196V0ZM106.474 0h-2.195v51.128h2.195V0ZM110.865 0h-2.195v51.128h2.195V0ZM117.451 0h-2.195v51.128h2.195V0ZM126.233 0h-2.196v51.128h2.196V0ZM130.623 0h-2.195v56.24h2.195V0ZM135.014 0h-2.195v56.24h2.195V0ZM139.405 0h-2.196v51.128h2.196V0ZM145.991 0h-2.196v51.128h2.196V0ZM159.163 0h-6.586v51.128h6.586V0ZM163.554 0h-2.196v51.128h2.196V0ZM172.335 0h-4.391v51.128h4.391V0ZM181.116 0h-4.39v51.128h4.39V0ZM189.898 0h-6.586v51.128h6.586V0ZM196.484 0h-2.196v51.128h2.196V0ZM203.07 0h-4.391v51.128h4.391V0ZM209.656 0h-4.391v51.128h4.391V0ZM216.242 0h-2.195v51.128h2.195V0ZM220.633 0h-2.196v51.128h2.196V0ZM231.609 0h-2.195v56.24h2.195V0ZM236 0h-2.195v56.24H236V0Z" />
</svg>