<svg xmlns="http://www.w3.org/2000/svg" fill="none" viewBox="0 0 300 600"><mask id="c" fill="#fff"><path fill-rule="evenodd" d="M300 24.243c0-2.487-2.512-4.243-5-4.243-8.284 0-15-6.716-15-15 0-2.488-1.756-5-4.243-5H24.243C21.756 0 20 2.512 20 5c0 8.284-6.716 15-15 15-2.488 0-5 1.756-5 4.243v444.514C0 471.244 2.512 473 5 473c8.284 0 15 6.716 15 15 0 8.284-6.716 15-15 15-2.488 0-5 1.756-5 4.243v68.514C0 578.244 2.512 580 5 580c8.284 0 15 6.716 15 15 0 2.488 1.756 5 4.243 5h251.514c2.487 0 4.243-2.512 4.243-5 0-8.284 6.716-15 15-15 2.488 0 5-1.756 5-4.243v-68.514c0-2.487-2.512-4.243-5-4.243-8.284 0-15-6.716-15-15 0-8.284 6.716-15 15-15 2.488 0 5-1.756 5-4.243V24.243ZM280 487a1 1 0 0 1-1 1h-6a1 1 0 0 1 0-2h6a1 1 0 0 1 1 1Zm-13 1a1 1 0 0 0 0-2h-6a1 1 0 0 0 0 2h6Zm-11-1a1 1 0 0 1-1 1h-6a1 1 0 0 1 0-2h6a1 1 0 0 1 1 1Zm-13 1a1 1 0 0 0 0-2h-6a1 1 0 0 0 0 2h6Zm-11-1a1 1 0 0 1-1 1h-6a1 1 0 0 1 0-2h6a1 1 0 0 1 1 1Zm-13 1a1 1 0 0 0 0-2h-6a1 1 0 0 0 0 2h6Zm-11-1a1 1 0 0 1-1 1h-6a1 1 0 0 1 0-2h6a1 1 0 0 1 1 1Zm-13 1a1 1 0 0 0 0-2h-6a1 1 0 0 0 0 2h6Zm-11-1a1 1 0 0 1-1 1h-6a1 1 0 0 1 0-2h6a1 1 0 0 1 1 1Zm-13 1a1 1 0 0 0 0-2h-6a1 1 0 0 0 0 2h6Zm-11-1a1 1 0 0 1-1 1h-6a1 1 0 0 1 0-2h6a1 1 0 0 1 1 1Zm-13 1a1 1 0 0 0 0-2h-6a1 1 0 0 0 0 2h6Zm-11-1a1 1 0 0 1-1 1h-6a1 1 0 0 1 0-2h6a1 1 0 0 1 1 1Zm-13 1a1 1 0 0 0 0-2h-6a1 1 0 0 0 0 2h6Zm-11-1a1 1 0 0 1-1 1h-6a1 1 0 0 1 0-2h6a1 1 0 0 1 1 1Zm-13 1a1 1 0 0 0 0-2h-6a1 1 0 0 0 0 2h6Zm-11-1a1 1 0 0 1-1 1h-6a1 1 0 0 1 0-2h6a1 1 0 0 1 1 1Zm-13 1a1 1 0 0 0 0-2h-6a1 1 0 0 0 0 2h6Zm-11-1a1 1 0 0 1-1 1h-6a1 1 0 0 1 0-2h6a1 1 0 0 1 1 1Zm-13 1a1 1 0 0 0 0-2h-6a1 1 0 0 0 0 2h6Zm-11-1a1 1 0 0 1-1 1h-6a1 1 0 0 1 0-2h6a1 1 0 0 1 1 1Zm-13 1a1 1 0 0 0 0-2h-6a1 1 0 0 0 0 2h6Z" clip-rule="evenodd"/></mask><path fill="#072C31" fill-rule="evenodd" d="M300 24.243c0-2.487-2.512-4.243-5-4.243-8.284 0-15-6.716-15-15 0-2.488-1.756-5-4.243-5H24.243C21.756 0 20 2.512 20 5c0 8.284-6.716 15-15 15-2.488 0-5 1.756-5 4.243v444.514C0 471.244 2.512 473 5 473c8.284 0 15 6.716 15 15 0 8.284-6.716 15-15 15-2.488 0-5 1.756-5 4.243v68.514C0 578.244 2.512 580 5 580c8.284 0 15 6.716 15 15 0 2.488 1.756 5 4.243 5h251.514c2.487 0 4.243-2.512 4.243-5 0-8.284 6.716-15 15-15 2.488 0 5-1.756 5-4.243v-68.514c0-2.487-2.512-4.243-5-4.243-8.284 0-15-6.716-15-15 0-8.284 6.716-15 15-15 2.488 0 5-1.756 5-4.243V24.243ZM280 487a1 1 0 0 1-1 1h-6a1 1 0 0 1 0-2h6a1 1 0 0 1 1 1Zm-13 1a1 1 0 0 0 0-2h-6a1 1 0 0 0 0 2h6Zm-11-1a1 1 0 0 1-1 1h-6a1 1 0 0 1 0-2h6a1 1 0 0 1 1 1Zm-13 1a1 1 0 0 0 0-2h-6a1 1 0 0 0 0 2h6Zm-11-1a1 1 0 0 1-1 1h-6a1 1 0 0 1 0-2h6a1 1 0 0 1 1 1Zm-13 1a1 1 0 0 0 0-2h-6a1 1 0 0 0 0 2h6Zm-11-1a1 1 0 0 1-1 1h-6a1 1 0 0 1 0-2h6a1 1 0 0 1 1 1Zm-13 1a1 1 0 0 0 0-2h-6a1 1 0 0 0 0 2h6Zm-11-1a1 1 0 0 1-1 1h-6a1 1 0 0 1 0-2h6a1 1 0 0 1 1 1Zm-13 1a1 1 0 0 0 0-2h-6a1 1 0 0 0 0 2h6Zm-11-1a1 1 0 0 1-1 1h-6a1 1 0 0 1 0-2h6a1 1 0 0 1 1 1Zm-13 1a1 1 0 0 0 0-2h-6a1 1 0 0 0 0 2h6Zm-11-1a1 1 0 0 1-1 1h-6a1 1 0 0 1 0-2h6a1 1 0 0 1 1 1Zm-13 1a1 1 0 0 0 0-2h-6a1 1 0 0 0 0 2h6Zm-11-1a1 1 0 0 1-1 1h-6a1 1 0 0 1 0-2h6a1 1 0 0 1 1 1Zm-13 1a1 1 0 0 0 0-2h-6a1 1 0 0 0 0 2h6Zm-11-1a1 1 0 0 1-1 1h-6a1 1 0 0 1 0-2h6a1 1 0 0 1 1 1Zm-13 1a1 1 0 0 0 0-2h-6a1 1 0 0 0 0 2h6Zm-11-1a1 1 0 0 1-1 1h-6a1 1 0 0 1 0-2h6a1 1 0 0 1 1 1Zm-13 1a1 1 0 0 0 0-2h-6a1 1 0 0 0 0 2h6Zm-11-1a1 1 0 0 1-1 1h-6a1 1 0 0 1 0-2h6a1 1 0 0 1 1 1Zm-13 1a1 1 0 0 0 0-2h-6a1 1 0 0 0 0 2h6Z" clip-rule="evenodd"/><path fill="url(#a)" fill-rule="evenodd" d="M300 24.243c0-2.487-2.512-4.243-5-4.243-8.284 0-15-6.716-15-15 0-2.488-1.756-5-4.243-5H24.243C21.756 0 20 2.512 20 5c0 8.284-6.716 15-15 15-2.488 0-5 1.756-5 4.243v444.514C0 471.244 2.512 473 5 473c8.284 0 15 6.716 15 15 0 8.284-6.716 15-15 15-2.488 0-5 1.756-5 4.243v68.514C0 578.244 2.512 580 5 580c8.284 0 15 6.716 15 15 0 2.488 1.756 5 4.243 5h251.514c2.487 0 4.243-2.512 4.243-5 0-8.284 6.716-15 15-15 2.488 0 5-1.756 5-4.243v-68.514c0-2.487-2.512-4.243-5-4.243-8.284 0-15-6.716-15-15 0-8.284 6.716-15 15-15 2.488 0 5-1.756 5-4.243V24.243ZM280 487a1 1 0 0 1-1 1h-6a1 1 0 0 1 0-2h6a1 1 0 0 1 1 1Zm-13 1a1 1 0 0 0 0-2h-6a1 1 0 0 0 0 2h6Zm-11-1a1 1 0 0 1-1 1h-6a1 1 0 0 1 0-2h6a1 1 0 0 1 1 1Zm-13 1a1 1 0 0 0 0-2h-6a1 1 0 0 0 0 2h6Zm-11-1a1 1 0 0 1-1 1h-6a1 1 0 0 1 0-2h6a1 1 0 0 1 1 1Zm-13 1a1 1 0 0 0 0-2h-6a1 1 0 0 0 0 2h6Zm-11-1a1 1 0 0 1-1 1h-6a1 1 0 0 1 0-2h6a1 1 0 0 1 1 1Zm-13 1a1 1 0 0 0 0-2h-6a1 1 0 0 0 0 2h6Zm-11-1a1 1 0 0 1-1 1h-6a1 1 0 0 1 0-2h6a1 1 0 0 1 1 1Zm-13 1a1 1 0 0 0 0-2h-6a1 1 0 0 0 0 2h6Zm-11-1a1 1 0 0 1-1 1h-6a1 1 0 0 1 0-2h6a1 1 0 0 1 1 1Zm-13 1a1 1 0 0 0 0-2h-6a1 1 0 0 0 0 2h6Zm-11-1a1 1 0 0 1-1 1h-6a1 1 0 0 1 0-2h6a1 1 0 0 1 1 1Zm-13 1a1 1 0 0 0 0-2h-6a1 1 0 0 0 0 2h6Zm-11-1a1 1 0 0 1-1 1h-6a1 1 0 0 1 0-2h6a1 1 0 0 1 1 1Zm-13 1a1 1 0 0 0 0-2h-6a1 1 0 0 0 0 2h6Zm-11-1a1 1 0 0 1-1 1h-6a1 1 0 0 1 0-2h6a1 1 0 0 1 1 1Zm-13 1a1 1 0 0 0 0-2h-6a1 1 0 0 0 0 2h6Zm-11-1a1 1 0 0 1-1 1h-6a1 1 0 0 1 0-2h6a1 1 0 0 1 1 1Zm-13 1a1 1 0 0 0 0-2h-6a1 1 0 0 0 0 2h6Zm-11-1a1 1 0 0 1-1 1h-6a1 1 0 0 1 0-2h6a1 1 0 0 1 1 1Zm-13 1a1 1 0 0 0 0-2h-6a1 1 0 0 0 0 2h6Z" clip-rule="evenodd"/><path fill="url(#b)" fill-rule="evenodd" d="M300 24.243c0-2.487-2.512-4.243-5-4.243-8.284 0-15-6.716-15-15 0-2.488-1.756-5-4.243-5H24.243C21.756 0 20 2.512 20 5c0 8.284-6.716 15-15 15-2.488 0-5 1.756-5 4.243v444.514C0 471.244 2.512 473 5 473c8.284 0 15 6.716 15 15 0 8.284-6.716 15-15 15-2.488 0-5 1.756-5 4.243v68.514C0 578.244 2.512 580 5 580c8.284 0 15 6.716 15 15 0 2.488 1.756 5 4.243 5h251.514c2.487 0 4.243-2.512 4.243-5 0-8.284 6.716-15 15-15 2.488 0 5-1.756 5-4.243v-68.514c0-2.487-2.512-4.243-5-4.243-8.284 0-15-6.716-15-15 0-8.284 6.716-15 15-15 2.488 0 5-1.756 5-4.243V24.243ZM280 487a1 1 0 0 1-1 1h-6a1 1 0 0 1 0-2h6a1 1 0 0 1 1 1Zm-13 1a1 1 0 0 0 0-2h-6a1 1 0 0 0 0 2h6Zm-11-1a1 1 0 0 1-1 1h-6a1 1 0 0 1 0-2h6a1 1 0 0 1 1 1Zm-13 1a1 1 0 0 0 0-2h-6a1 1 0 0 0 0 2h6Zm-11-1a1 1 0 0 1-1 1h-6a1 1 0 0 1 0-2h6a1 1 0 0 1 1 1Zm-13 1a1 1 0 0 0 0-2h-6a1 1 0 0 0 0 2h6Zm-11-1a1 1 0 0 1-1 1h-6a1 1 0 0 1 0-2h6a1 1 0 0 1 1 1Zm-13 1a1 1 0 0 0 0-2h-6a1 1 0 0 0 0 2h6Zm-11-1a1 1 0 0 1-1 1h-6a1 1 0 0 1 0-2h6a1 1 0 0 1 1 1Zm-13 1a1 1 0 0 0 0-2h-6a1 1 0 0 0 0 2h6Zm-11-1a1 1 0 0 1-1 1h-6a1 1 0 0 1 0-2h6a1 1 0 0 1 1 1Zm-13 1a1 1 0 0 0 0-2h-6a1 1 0 0 0 0 2h6Zm-11-1a1 1 0 0 1-1 1h-6a1 1 0 0 1 0-2h6a1 1 0 0 1 1 1Zm-13 1a1 1 0 0 0 0-2h-6a1 1 0 0 0 0 2h6Zm-11-1a1 1 0 0 1-1 1h-6a1 1 0 0 1 0-2h6a1 1 0 0 1 1 1Zm-13 1a1 1 0 0 0 0-2h-6a1 1 0 0 0 0 2h6Zm-11-1a1 1 0 0 1-1 1h-6a1 1 0 0 1 0-2h6a1 1 0 0 1 1 1Zm-13 1a1 1 0 0 0 0-2h-6a1 1 0 0 0 0 2h6Zm-11-1a1 1 0 0 1-1 1h-6a1 1 0 0 1 0-2h6a1 1 0 0 1 1 1Zm-13 1a1 1 0 0 0 0-2h-6a1 1 0 0 0 0 2h6Zm-11-1a1 1 0 0 1-1 1h-6a1 1 0 0 1 0-2h6a1 1 0 0 1 1 1Zm-13 1a1 1 0 0 0 0-2h-6a1 1 0 0 0 0 2h6Z" clip-rule="evenodd"/><path fill="#24A0B5" d="M279 5c0 8.837 7.163 16 16 16v-2c-7.732 0-14-6.268-14-14h-2ZM24.243 1h251.514v-2H24.243v2ZM5 21c8.837 0 16-7.163 16-16h-2c0 7.732-6.268 14-14 14v2ZM1 468.757V24.243h-2v444.514h2ZM21 488c0-8.837-7.163-16-16-16v2c7.732 0 14 6.268 14 14h2ZM5 504c8.837 0 16-7.163 16-16h-2c0 7.732-6.268 14-14 14v2Zm-4 71.757v-68.514h-2v68.514h2ZM21 595c0-8.837-7.163-16-16-16v2c7.732 0 14 6.268 14 14h2Zm254.757 4H24.243v2h251.514v-2Zm5.243-4c0-7.732 6.268-14 14-14v-2c-8.837 0-16 7.163-16 16h2Zm18-87.757v68.514h2v-68.514h-2ZM279 488c0 8.837 7.163 16 16 16v-2c-7.732 0-14-6.268-14-14h-2Zm16-16c-8.837 0-16 7.163-16 16h2c0-7.732 6.268-14 14-14v-2Zm4-447.757v444.514h2V24.243h-2ZM279 489a2 2 0 0 0 2-2h-2v2Zm-6 0h6v-2h-6v2Zm-2-2a2 2 0 0 0 2 2v-2h-2Zm2-2a2 2 0 0 0-2 2h2v-2Zm6 0h-6v2h6v-2Zm2 2a2 2 0 0 0-2-2v2h2Zm-14 0v2a2 2 0 0 0 2-2h-2Zm0 0h2a2 2 0 0 0-2-2v2Zm-6 0h6v-2h-6v2Zm0 0v-2a2 2 0 0 0-2 2h2Zm0 0h-2a2 2 0 0 0 2 2v-2Zm6 0h-6v2h6v-2Zm-12 2a2 2 0 0 0 2-2h-2v2Zm-6 0h6v-2h-6v2Zm-2-2a2 2 0 0 0 2 2v-2h-2Zm2-2a2 2 0 0 0-2 2h2v-2Zm6 0h-6v2h6v-2Zm2 2a2 2 0 0 0-2-2v2h2Zm-14 0v2a2 2 0 0 0 2-2h-2Zm0 0h2a2 2 0 0 0-2-2v2Zm-6 0h6v-2h-6v2Zm0 0v-2a2 2 0 0 0-2 2h2Zm0 0h-2a2 2 0 0 0 2 2v-2Zm6 0h-6v2h6v-2Zm-12 2a2 2 0 0 0 2-2h-2v2Zm-6 0h6v-2h-6v2Zm-2-2a2 2 0 0 0 2 2v-2h-2Zm2-2a2 2 0 0 0-2 2h2v-2Zm6 0h-6v2h6v-2Zm2 2a2 2 0 0 0-2-2v2h2Zm-14 0v2a2 2 0 0 0 2-2h-2Zm0 0h2a2 2 0 0 0-2-2v2Zm-6 0h6v-2h-6v2Zm0 0v-2a2 2 0 0 0-2 2h2Zm0 0h-2a2 2 0 0 0 2 2v-2Zm6 0h-6v2h6v-2Zm-12 2a2 2 0 0 0 2-2h-2v2Zm-6 0h6v-2h-6v2Zm-2-2a2 2 0 0 0 2 2v-2h-2Zm2-2a2 2 0 0 0-2 2h2v-2Zm6 0h-6v2h6v-2Zm2 2a2 2 0 0 0-2-2v2h2Zm-14 0v2a2 2 0 0 0 2-2h-2Zm0 0h2a2 2 0 0 0-2-2v2Zm-6 0h6v-2h-6v2Zm0 0v-2a2 2 0 0 0-2 2h2Zm0 0h-2a2 2 0 0 0 2 2v-2Zm6 0h-6v2h6v-2Zm-12 2a2 2 0 0 0 2-2h-2v2Zm-6 0h6v-2h-6v2Zm-2-2a2 2 0 0 0 2 2v-2h-2Zm2-2a2 2 0 0 0-2 2h2v-2Zm6 0h-6v2h6v-2Zm2 2a2 2 0 0 0-2-2v2h2Zm-14 0v2a2 2 0 0 0 2-2h-2Zm0 0h2a2 2 0 0 0-2-2v2Zm-6 0h6v-2h-6v2Zm0 0v-2a2 2 0 0 0-2 2h2Zm0 0h-2a2 2 0 0 0 2 2v-2Zm6 0h-6v2h6v-2Zm-12 2a2 2 0 0 0 2-2h-2v2Zm-6 0h6v-2h-6v2Zm-2-2a2 2 0 0 0 2 2v-2h-2Zm2-2a2 2 0 0 0-2 2h2v-2Zm6 0h-6v2h6v-2Zm2 2a2 2 0 0 0-2-2v2h2Zm-14 0v2a2 2 0 0 0 2-2h-2Zm0 0h2a2 2 0 0 0-2-2v2Zm-6 0h6v-2h-6v2Zm0 0v-2a2 2 0 0 0-2 2h2Zm0 0h-2a2 2 0 0 0 2 2v-2Zm6 0h-6v2h6v-2Zm-12 2a2 2 0 0 0 2-2h-2v2Zm-6 0h6v-2h-6v2Zm-2-2a2 2 0 0 0 2 2v-2h-2Zm2-2a2 2 0 0 0-2 2h2v-2Zm6 0h-6v2h6v-2Zm2 2a2 2 0 0 0-2-2v2h2Zm-14 0v2a2 2 0 0 0 2-2h-2Zm0 0h2a2 2 0 0 0-2-2v2Zm-6 0h6v-2h-6v2Zm0 0v-2a2 2 0 0 0-2 2h2Zm0 0h-2a2 2 0 0 0 2 2v-2Zm6 0h-6v2h6v-2Zm-12 2a2 2 0 0 0 2-2h-2v2Zm-6 0h6v-2h-6v2Zm-2-2a2 2 0 0 0 2 2v-2h-2Zm2-2a2 2 0 0 0-2 2h2v-2Zm6 0h-6v2h6v-2Zm2 2a2 2 0 0 0-2-2v2h2Zm-14 0v2a2 2 0 0 0 2-2h-2Zm0 0h2a2 2 0 0 0-2-2v2Zm-6 0h6v-2h-6v2Zm0 0v-2a2 2 0 0 0-2 2h2Zm0 0h-2a2 2 0 0 0 2 2v-2Zm6 0h-6v2h6v-2Zm-12 2a2 2 0 0 0 2-2h-2v2Zm-6 0h6v-2h-6v2Zm-2-2a2 2 0 0 0 2 2v-2h-2Zm2-2a2 2 0 0 0-2 2h2v-2Zm6 0h-6v2h6v-2Zm2 2a2 2 0 0 0-2-2v2h2Zm-14 0v2a2 2 0 0 0 2-2h-2Zm0 0h2a2 2 0 0 0-2-2v2Zm-6 0h6v-2h-6v2Zm0 0v-2a2 2 0 0 0-2 2h2Zm0 0h-2a2 2 0 0 0 2 2v-2Zm6 0h-6v2h6v-2Zm-12 2a2 2 0 0 0 2-2h-2v2Zm-6 0h6v-2h-6v2Zm-2-2a2 2 0 0 0 2 2v-2h-2Zm2-2a2 2 0 0 0-2 2h2v-2Zm6 0h-6v2h6v-2Zm2 2a2 2 0 0 0-2-2v2h2Zm-14 0v2a2 2 0 0 0 2-2h-2Zm0 0h2a2 2 0 0 0-2-2v2Zm-6 0h6v-2h-6v2Zm0 0v-2a2 2 0 0 0-2 2h2Zm0 0h-2a2 2 0 0 0 2 2v-2Zm6 0h-6v2h6v-2Zm-12 2a2 2 0 0 0 2-2h-2v2Zm-6 0h6v-2h-6v2Zm-2-2a2 2 0 0 0 2 2v-2h-2Zm2-2a2 2 0 0 0-2 2h2v-2Zm6 0h-6v2h6v-2Zm2 2a2 2 0 0 0-2-2v2h2Zm-14 0v2a2 2 0 0 0 2-2h-2Zm0 0h2a2 2 0 0 0-2-2v2Zm-6 0h6v-2h-6v2Zm0 0v-2a2 2 0 0 0-2 2h2Zm0 0h-2a2 2 0 0 0 2 2v-2Zm6 0h-6v2h6v-2Zm268-13a6.597 6.597 0 0 0 4.057-1.407c1.126-.9 1.943-2.23 1.943-3.836h-2c0 .881-.44 1.673-1.191 2.273A4.597 4.597 0 0 1 295 472v2Zm6 33.243c0-1.606-.817-2.936-1.943-3.836A6.597 6.597 0 0 0 295 502v2c1.02 0 2.05.364 2.809.97.751.6 1.191 1.392 1.191 2.273h2ZM295 581a6.597 6.597 0 0 0 4.057-1.407c1.126-.9 1.943-2.23 1.943-3.836h-2c0 .881-.44 1.673-1.191 2.273A4.597 4.597 0 0 1 295 579v2Zm-19.243 20c1.606 0 2.936-.817 3.836-1.943A6.597 6.597 0 0 0 281 595h-2c0 1.02-.364 2.05-.97 2.809-.6.751-1.392 1.191-2.273 1.191v2ZM19 595c0 1.467.514 2.938 1.407 4.057.9 1.126 2.23 1.943 3.836 1.943v-2c-.88 0-1.673-.44-2.273-1.191A4.595 4.595 0 0 1 21 595h-2Zm-20-19.243c0 1.606.817 2.936 1.943 3.836A6.596 6.596 0 0 0 5 581v-2c-1.02 0-2.05-.364-2.809-.97-.751-.6-1.191-1.392-1.191-2.273h-2ZM5 19a6.593 6.593 0 0 0-4.057 1.407C-.183 21.307-1 22.637-1 24.243h2c0-.88.44-1.673 1.191-2.273A4.594 4.594 0 0 1 5 21v-2ZM24.243-1c-1.606 0-2.936.817-3.836 1.943A6.593 6.593 0 0 0 19 5h2c0-1.02.364-2.05.97-2.809C22.57 1.44 23.363 1 24.243 1v-2ZM-1 468.757c0 1.606.817 2.936 1.943 3.836A6.596 6.596 0 0 0 5 474v-2c-1.02 0-2.05-.364-2.809-.97-.751-.6-1.191-1.392-1.191-2.273h-2ZM281 5a6.596 6.596 0 0 0-1.407-4.057c-.9-1.126-2.23-1.943-3.836-1.943v2c.881 0 1.673.44 2.273 1.191.606.76.97 1.789.97 2.809h2ZM5 502a6.596 6.596 0 0 0-4.057 1.407c-1.126.9-1.943 2.23-1.943 3.836h2c0-.881.44-1.673 1.191-2.273A4.596 4.596 0 0 1 5 504v-2ZM295 21c1.02 0 2.05.364 2.809.97.751.6 1.191 1.393 1.191 2.273h2c0-1.606-.817-2.936-1.943-3.836A6.594 6.594 0 0 0 295 19v2Z" mask="url(#c)"/><defs><radialGradient id="a" cx="0" cy="0" r="1" gradientTransform="matrix(0 83.5 -150 0 150 0)" gradientUnits="userSpaceOnUse"><stop stop-color="#24A0B5" stop-opacity=".5"/><stop offset="1" stop-color="#24A0B5" stop-opacity="0"/></radialGradient><radialGradient id="b" cx="0" cy="0" r="1" gradientTransform="matrix(0 -217 150 0 150 619.5)" gradientUnits="userSpaceOnUse"><stop stop-color="#24A0B5" stop-opacity=".5"/><stop offset="1" stop-color="#24A0B5" stop-opacity="0"/></radialGradient></defs></svg>